<?xml version="1.0" encoding="utf-8"?>
<!-- Generator: Adobe Illustrator 26.3.1, SVG Export Plug-In . SVG Version: 6.00 Build 0)  -->
<svg version="1.1" id="Layer_1" xmlns="http://www.w3.org/2000/svg" xmlns:xlink="http://www.w3.org/1999/xlink" x="0px" y="0px"
	 viewBox="0 0 24 24" style="enable-background:new 0 0 24 24;" xml:space="preserve">
<style type="text/css">
	.st0{fill:#FFFFFF;}
</style>
<path class="st0" d="M12,2c5.5,0,10,4.5,10,10s-4.5,10-10,10S2,17.5,2,12S6.5,2,12,2z M12,0C5.4,0,0,5.4,0,12s5.4,12,12,12
	s12-5.4,12-12S18.6,0,12,0z M15,12c0,1.7-1.3,3-3,3s-3-1.3-3-3s1.3-3,3-3S15,10.3,15,12z M12,7c0.3,0,0.7,0,1,0.1V4h-2v3.1
	C11.3,7,11.7,7,12,7z M9.2,7.8L7.1,5.6L5.6,7l2.2,2.2C8.2,8.7,8.7,8.2,9.2,7.8z M7,12c0-0.3,0-0.7,0.1-1H4v2h3.1C7,12.7,7,12.3,7,12
	z M16.2,9.2l2.2-2.2l-1.4-1.4l-2.2,2.2C15.3,8.2,15.8,8.7,16.2,9.2z M16.9,11c0.1,0.3,0.1,0.7,0.1,1s0,0.7-0.1,1H20v-2H16.9z
	 M14.8,16.2l2.2,2.2l1.4-1.4l-2.2-2.2C15.8,15.3,15.3,15.8,14.8,16.2z M7.8,14.8L5.6,17L7,18.4l2.2-2.2C8.7,15.8,8.2,15.3,7.8,14.8z
	 M12,17c-0.3,0-0.7,0-1-0.1V20h2v-3.1C12.7,17,12.3,17,12,17z"/>
</svg>
